<svg xmlns="http://www.w3.org/2000/svg" viewBox="0 0 32 32">
  <rect width="32" height="32" rx="5" fill="#24292f"/>
  <path fill="#fff" d="M16 6.1c-5.6 0-10.1 4.5-10.1 10.1 0 4.5 2.9 8.3 7 9.6.5.1.7-.2.7-.5v-1.8c-2.8.6-3.4-1.2-3.4-1.2-.5-1.1-1.1-1.4-1.1-1.4-.9-.6.1-.6.1-.6 1 0 1.6 1.1 1.6 1.1.9 1.6 2.4 1.1 3 .9.1-.7.4-1.1.7-1.4-2.3-.3-4.7-1.1-4.7-5 0-1.1.4-2 1.1-2.7-.1-.3-.5-1.4.1-2.7 0 0 .9-.3 2.8 1.1.8-.2 1.6-.3 2.5-.3s1.7.1 2.5.3c1.9-1.3 2.8-1.1 2.8-1.1.6 1.4.2 2.4.1 2.7.7.8 1.1 1.7 1.1 2.7 0 3.9-2.4 4.7-4.7 5 .4.3.7 1 .7 2v2.5c0 .3.2.6.7.5 4.1-1.4 7-5.2 7-9.6 0-5.7-4.5-10.2-10.2-10.2Z"/>
</svg>
